<?xml version="1.0" standalone="no"?>
<!DOCTYPE svg PUBLIC "-//W3C//DTD SVG 20010904//EN"
 "http://www.w3.org/TR/2001/REC-SVG-20010904/DTD/svg10.dtd">
<svg version="1.0" xmlns="http://www.w3.org/2000/svg"
 width="500.000000pt" height="250.000000pt" viewBox="0 0 500.000000 250.000000"
 preserveAspectRatio="xMidYMid meet">

<g transform="translate(0.000000,250.000000) scale(0.100000,-0.100000)"
fill="#085ff7" stroke="none">
<path d="M2920 1965 l0 -125 154 0 155 0 3 -417 c5 -490 3 -479 102 -579 89
-89 115 -96 369 -102 l207 -4 0 126 0 126 -160 0 c-170 0 -208 8 -230 49 -6
13 -10 201 -10 535 l0 516 -295 0 -295 0 0 -125z"/>
<path d="M420 1755 c-138 -39 -247 -149 -267 -269 l-6 -36 131 0 130 0 20 34
c29 49 74 70 147 70 104 -1 155 -53 155 -158 l0 -43 -167 -6 c-182 -6 -263
-21 -325 -62 -96 -64 -132 -132 -132 -256 0 -73 4 -93 27 -142 45 -90 116
-138 232 -157 122 -19 234 9 301 76 24 23 46 54 50 68 12 51 24 25 24 -54 l0
-80 131 0 130 0 -3 393 -3 392 -28 57 c-35 70 -100 130 -176 159 -74 29 -287
37 -371 14z m310 -623 c0 -140 -59 -205 -190 -206 -107 -1 -160 45 -160 137 1
51 17 82 56 108 25 16 47 19 162 19 l132 0 0 -58z"/>
<path d="M1516 1756 c-54 -20 -113 -81 -136 -141 l-19 -50 0 98 -1 97 -135 0
-135 0 0 -675 0 -675 142 0 141 0 -6 263 c-6 262 -6 262 12 215 29 -72 57
-104 117 -134 99 -48 241 -35 326 29 53 40 103 112 124 180 22 69 31 391 15
497 -21 135 -76 222 -173 275 -45 25 -66 30 -143 32 -61 2 -103 -1 -129 -11z
m94 -238 c73 -37 80 -61 80 -274 0 -172 -1 -183 -23 -215 -66 -99 -239 -88
-283 17 -10 24 -14 81 -14 204 0 151 2 175 20 210 38 75 135 100 220 58z"/>
<path d="M2466 1756 c-54 -20 -113 -81 -136 -141 l-19 -50 0 98 -1 97 -135 0
-135 0 0 -675 0 -675 142 0 141 0 -6 263 c-6 262 -6 262 12 215 29 -72 57
-104 117 -134 99 -48 241 -35 326 29 53 40 103 112 124 180 22 69 31 391 15
497 -21 135 -76 222 -173 275 -45 25 -66 30 -143 32 -61 2 -103 -1 -129 -11z
m94 -238 c73 -37 80 -61 80 -274 0 -172 -1 -183 -23 -215 -66 -99 -239 -88
-283 17 -10 24 -14 81 -14 204 0 151 2 175 20 210 38 75 135 100 220 58z"/>
<path d="M3883 1748 c3 -7 91 -225 195 -485 l190 -472 -68 -188 -67 -188 140
-3 c77 -1 141 -1 143 1 3 2 108 300 235 661 126 362 233 664 236 672 4 12 -18
14 -139 14 l-143 0 -78 -233 c-42 -128 -88 -277 -102 -332 -14 -54 -27 -100
-29 -102 -2 -2 -11 29 -21 69 -9 40 -58 191 -108 336 l-91 262 -149 0 c-115 0
-148 -3 -144 -12z"/>
</g>
</svg>
